PathFileType	4	(X/Y/Z)	G:\Shared drives\HIT\Data\HapticPilot\Subject1\Edited\static1.trc
DataRate	CameraRate	NumFrames	NumMarkers	Units	OrigDataRate	OrigDataStartFrame	OrigNumFrames
50.00	50.00	       8	38	mm	50.00	29	       227
Frame#	Time	r_knee			r_shank(antsup)			r_ankle			r_calc			r_5meta			r_toe			L_knee			L_shank(ant_sup)			L_ankle			L_calc			L_5meta			L_toe			r_mknee			r_mankle			L_mknee			L_mankle			r_sh2			r_sh3			r_sh4			L_sh2			L_sh3			r_thigh1			r_thigh2			r_thigh3			r_thigh4			r_thigh5			L_thigh1			L_thigh2			L_thigh3			L_thigh4			r.ASIS			r.PSIS			L.ASIS			L.PSIS			C7			R_Shoulder			L_Shoulder			Sternum			
		X1	Y1	Z1	X2	Y2	Z2	X3	Y3	Z3	X4	Y4	Z4	X5	Y5	Z5	X6	Y6	Z6	X7	Y7	Z7	X8	Y8	Z8	X9	Y9	Z9	X10	Y10	Z10	X11	Y11	Z11	X12	Y12	Z12	X13	Y13	Z13	X14	Y14	Z14	X15	Y15	Z15	X16	Y16	Z16	X17	Y17	Z17	X18	Y18	Z18	X19	Y19	Z19	X20	Y20	Z20	X21	Y21	Z21	X22	Y22	Z22	X23	Y23	Z23	X24	Y24	Z24	X25	Y25	Z25	X26	Y26	Z26	X27	Y27	Z27	X28	Y28	Z28	X29	Y29	Z29	X30	Y30	Z30	X31	Y31	Z31	X32	Y32	Z32	X33	Y33	Z33	X34	Y34	Z34	X35	Y35	Z35	X36	Y36	Z36	X37	Y37	Z37	X38	Y38	Z38	

29	0.560	772.56342	409.51886	578.93311	787.04211	404.66431	491.91083	734.99249	409.04880	114.21109	646.41412	452.10477	71.22353	847.12250	382.31992	39.41270	886.03931	445.09424	73.62814	765.78552	732.86926	573.46252	790.82758	734.01410	456.10968	705.22699	732.22131	113.29950	629.68585	681.35547	73.41935	820.98981	777.88074	42.50522	868.05377	721.42529	71.04685	770.23187	535.51398	558.08008	746.90546	505.24667	120.73067	783.60791	610.44647	562.97070	736.69629	642.44324	120.67643	783.90881	401.45035	371.80545	712.08356	392.65097	491.61169	701.82825	385.97195	375.73282	703.36658	752.71320	475.98114	691.49115	753.99579	354.05997	840.34558	393.22354	899.01251	839.72906	396.37811	784.11761	793.83832	383.95746	750.77765	727.34723	382.19937	892.92822	732.72076	394.16425	775.93365	853.82104	753.10254	840.10327	855.33258	744.03650	701.98914	738.68927	771.83905	838.61066	743.19904	752.48212	704.32581	863.18610	447.40982	1094.87573	674.02881	540.12042	1126.51599	872.27832	705.17560	1096.25195	682.35187	622.56091	1125.41321	721.42651	588.04797	1608.81287	766.04993	422.88455	1582.83289	788.61603	764.24731	1575.78479	864.57471	580.62988	1536.83398	
30	0.580	772.58038	409.55542	578.91821	787.04895	404.66946	491.90735	734.98944	409.05634	114.21068	646.43469	452.06946	71.21436	847.10712	382.30585	39.38520	886.06439	445.10214	73.63229	765.92188	732.85010	573.43750	790.90778	734.03680	456.13153	705.29742	732.26733	113.25308	629.67719	681.40216	73.32132	821.01324	777.85211	42.50089	868.06525	721.40881	71.02801	770.22003	535.50293	558.03644	746.91632	505.23499	120.69790	783.58246	610.44177	562.86877	736.75250	642.42352	120.74509	783.88275	401.44757	371.77670	712.07043	392.66681	491.62039	701.84393	385.98843	375.72943	703.46118	752.77637	475.97537	691.43854	753.97662	354.01529	840.41431	393.25024	898.98260	839.44867	396.32376	784.00110	793.95660	383.92932	750.80377	727.42291	382.11926	892.96814	732.82581	393.98785	775.94165	854.04846	753.05463	840.04651	855.48846	743.97253	701.96106	738.96436	771.89319	838.52484	743.33673	752.56140	704.39661	863.29352	447.37436	1094.85083	674.14191	540.10333	1126.54492	872.36273	705.18066	1096.25439	682.43933	622.62244	1125.38501	721.43835	588.14563	1608.82043	765.96118	422.97617	1582.85791	788.55054	764.27942	1575.69189	864.53571	580.71826	1536.85828	
31	0.600	772.63385	409.56088	578.89374	787.07324	404.65710	491.92621	734.98840	409.05511	114.21748	646.44751	452.07520	71.20565	847.10852	382.31805	39.38484	886.06647	445.10437	73.64998	766.04510	732.83826	573.43066	791.02979	734.00812	456.09235	705.26575	732.24780	113.30238	629.68884	681.39050	73.42085	820.99542	777.86383	42.46812	868.06531	721.43604	71.04553	770.26147	535.49725	558.06165	746.90704	505.27066	120.72379	783.75439	610.44843	562.95001	736.63019	642.32971	120.75410	783.89575	401.44077	371.79352	712.13354	392.66681	491.60529	701.83783	385.99182	375.73459	703.55023	752.72760	475.98151	691.54077	753.94080	354.18048	840.45343	393.25134	898.92242	839.62848	396.36911	784.04913	794.05139	383.91550	750.75476	727.48126	382.10333	892.95209	732.90802	393.99728	775.91040	854.25568	753.00275	840.05267	855.69800	743.90051	701.91779	739.24744	771.89740	838.55725	743.52618	752.62323	704.38574	863.34985	447.44244	1094.84143	674.22369	540.19989	1126.54736	872.44354	705.18933	1096.20618	682.50610	622.68750	1125.41931	721.46417	588.18268	1608.81738	765.86365	423.09085	1582.84583	788.48407	764.37854	1575.57471	864.42096	580.76801	1536.81311	
32	0.620	772.71887	409.54993	578.88843	787.13666	404.66180	491.93616	735.00616	409.03897	114.23407	646.43225	452.11490	71.27556	847.10461	382.29361	39.43289	886.06976	445.11862	73.65575	766.22614	732.82025	573.47528	791.16687	733.99365	456.08807	705.24268	732.21002	113.35275	629.69611	681.36865	73.44608	821.00580	777.88953	42.51403	868.06171	721.43298	71.05149	770.40753	535.46313	558.06500	746.92816	505.27936	120.76059	783.76953	610.43188	562.86487	736.74646	642.36804	120.79261	783.99377	401.43808	371.78552	712.24933	392.67038	491.60974	701.95544	385.98203	375.75232	703.66370	752.74792	476.00674	691.70209	754.04645	354.09482	840.66443	393.25034	898.97559	839.72253	396.33127	783.99329	794.10870	383.84579	750.78333	727.63013	382.10565	892.93152	733.05469	393.94614	775.94934	854.43988	752.89813	840.08258	855.91858	743.82751	701.95862	739.13409	771.80725	838.67285	743.74310	752.70331	704.39343	863.52478	447.42645	1094.85522	674.32990	540.14941	1126.54858	872.51880	705.13232	1096.20325	682.67761	622.60663	1125.44739	721.42389	588.30725	1608.87256	765.73273	423.22086	1582.85803	788.36713	764.48779	1575.58606	864.32520	580.90417	1536.77808	
33	0.640	772.84882	409.50974	578.91107	787.23663	404.66550	491.90091	735.01135	409.06503	114.26418	646.42993	452.05795	71.30534	847.09802	382.32492	39.40718	886.06744	445.12164	73.65684	766.34784	732.79688	573.44647	791.29944	733.94977	456.11160	705.25342	732.21216	113.33926	629.69659	681.39185	73.43797	820.97656	777.85522	42.52535	868.07544	721.43359	71.04368	770.50128	535.46832	558.04950	746.91705	505.25952	120.73679	783.95819	610.39716	562.85284	736.68262	642.36963	120.73124	784.05573	401.45441	371.74042	712.32001	392.65125	491.62515	702.01227	385.98169	375.71503	703.75104	752.71973	476.04062	691.73474	753.95844	354.17596	840.74457	393.20871	898.91107	840.10626	396.37695	783.91742	794.24518	383.80948	750.76709	727.74805	382.10031	892.92609	733.16937	393.92825	775.90326	854.58081	752.84155	840.01044	855.89325	743.73248	701.89111	739.31671	771.79089	838.66492	743.87036	752.71210	704.32281	863.71368	447.31357	1094.90552	674.40387	540.14917	1126.58459	872.83301	705.12335	1096.30579	682.73181	622.61249	1125.49121	721.42999	588.38312	1608.88989	765.60046	423.36053	1582.85999	788.29675	764.60675	1575.53796	864.23645	580.99103	1536.78735	
34	0.660	772.96326	409.49573	578.89197	787.35931	404.66180	491.90091	734.99945	409.05695	114.21807	646.42670	452.06171	71.32899	847.12085	382.30878	39.40570	886.08820	445.10144	73.62174	766.36475	732.76953	573.39581	791.34863	733.92230	456.09747	705.23926	732.23114	113.35318	629.69446	681.37372	73.43839	820.98364	777.83246	42.53421	868.07104	721.39716	71.09251	770.58966	535.46942	558.06079	746.91235	505.25464	120.70763	784.05310	610.38477	562.85449	736.72687	642.34106	120.74213	784.13953	401.44321	371.73853	712.45343	392.63260	491.62363	702.15363	385.97745	375.69614	703.87726	752.70990	476.01782	691.72705	753.91370	354.13629	840.95721	393.19080	898.91437	840.06995	396.32776	783.90436	794.42267	383.87631	750.73944	727.89771	381.99741	892.89209	733.33606	393.89560	775.89526	854.65051	752.83142	840.02997	856.08984	743.74573	701.91602	739.40161	771.76331	838.68433	743.95691	752.61469	704.35583	863.80859	447.33896	1094.85278	674.63586	540.11908	1126.56738	872.87396	705.14374	1096.28418	682.84930	622.63538	1125.48901	721.41229	588.53760	1608.83667	765.44897	423.53070	1582.85144	788.18610	764.73322	1575.46484	864.09601	581.11475	1536.74500	
35	0.680	773.12378	409.46375	578.86926	787.50354	404.61502	491.91861	735.02307	409.06461	114.22793	646.45697	452.10400	71.29974	847.10333	382.30280	39.37729	886.07648	445.09927	73.63211	766.48199	732.72498	573.40198	791.49060	733.89655	456.08759	705.29102	732.25537	113.34879	629.69031	681.39868	73.43745	821.00690	777.88593	42.50127	868.07843	721.41443	71.03190	770.78442	535.43109	558.05298	746.96692	505.26694	120.75144	784.18683	610.37122	562.86224	736.73096	642.32983	120.70715	784.21521	401.44012	371.69452	712.51428	392.59702	491.62643	702.22168	385.95557	375.71643	703.94153	752.67969	476.04654	691.82831	753.91553	354.15103	841.19543	393.11533	898.89166	840.13324	396.28238	783.91498	794.60803	383.82709	750.73718	728.05707	381.96219	892.82953	733.52930	393.83673	775.85388	854.76172	752.80774	840.03015	856.19122	743.67688	701.91925	739.49451	771.74451	838.70087	744.10870	752.64209	704.31653	864.03284	447.17014	1094.93091	674.76050	540.07013	1126.53870	872.98059	705.07172	1096.23169	683.00482	622.59296	1125.45166	721.40210	588.68152	1608.83264	765.34698	423.62518	1582.86438	788.15308	764.85284	1575.38831	863.97534	581.25934	1536.71375	
36	0.700	773.24829	409.44397	578.85614	787.59985	404.64005	491.87653	735.03320	409.07346	114.23096	646.43164	452.14868	71.20916	847.12720	382.33047	39.39667	886.08716	445.12228	73.61887	766.55756	732.69409	573.38110	791.56482	733.86237	456.10150	705.28314	732.23956	113.34035	629.68268	681.40936	73.41582	820.99988	777.85095	42.48398	868.08838	721.46503	71.03230	770.85187	535.42102	558.03552	746.95166	505.26257	120.74642	784.28033	610.34259	562.81793	736.65912	642.35126	120.67350	784.26807	401.40598	371.75452	712.61975	392.60809	491.63327	702.31409	385.95486	375.71490	703.98834	752.62433	476.02386	691.85272	753.89850	354.15594	841.38898	393.17499	898.86115	840.49829	396.26990	783.91351	794.82074	383.82666	750.70764	728.28900	381.79581	892.87177	733.76184	393.71100	775.86957	854.83112	752.73444	840.04510	856.29572	743.67096	701.90112	739.58765	771.70831	838.68933	744.19409	752.52618	704.36340	864.19891	447.19443	1094.95996	674.88373	540.03296	1126.47632	873.02197	705.08179	1096.23840	683.27557	622.55310	1125.29590	721.44232	588.84430	1608.69202	765.19257	423.74701	1582.84033	788.21942	764.97302	1575.27393	863.85455	581.37250	1536.71509	
